<?xml version="1.0" encoding="UTF-8" standalone="no"?>
<!-- Generator: Adobe Illustrator 15.1.0, SVG Export Plug-In . SVG Version: 6.00 Build 0)  -->

<svg
   xmlns:dc="http://purl.org/dc/elements/1.1/"
   xmlns:cc="http://creativecommons.org/ns#"
   xmlns:rdf="http://www.w3.org/1999/02/22-rdf-syntax-ns#"
   xmlns:svg="http://www.w3.org/2000/svg"
   xmlns="http://www.w3.org/2000/svg"
   xmlns:sodipodi="http://sodipodi.sourceforge.net/DTD/sodipodi-0.dtd"
   xmlns:inkscape="http://www.inkscape.org/namespaces/inkscape"
   version="1.1"
   id="Layer_1"
   x="0px"
   y="0px"
   width="229.645"
   height="179.45799"
   viewBox="0 0 229.645 179.45799"
   enable-background="new 0 0 512 512"
   xml:space="preserve"
   inkscape:version="0.91 r13725"
   sodipodi:docname="fahrentheit.svg"><metadata
     id="metadata13"><rdf:RDF><cc:Work
         rdf:about=""><dc:format>image/svg+xml</dc:format><dc:type
           rdf:resource="http://purl.org/dc/dcmitype/StillImage" /><dc:title></dc:title></cc:Work></rdf:RDF></metadata><defs
     id="defs11" /><sodipodi:namedview
     pagecolor="#ffffff"
     bordercolor="#666666"
     borderopacity="1"
     objecttolerance="10"
     gridtolerance="10"
     guidetolerance="10"
     inkscape:pageopacity="0"
     inkscape:pageshadow="2"
     inkscape:window-width="640"
     inkscape:window-height="480"
     id="namedview9"
     showgrid="false"
     fit-margin-top="0"
     fit-margin-left="0"
     fit-margin-right="0"
     fit-margin-bottom="0"
     inkscape:zoom="0.4609375"
     inkscape:cx="114.823"
     inkscape:cy="89.729"
     inkscape:window-x="0"
     inkscape:window-y="0"
     inkscape:window-maximized="0"
     inkscape:current-layer="Layer_1" /><g
     id="g3"
     transform="translate(-141.177,-166.271)"><g
       id="g5"><path
         d="m 208.531,177.271 c -3.604,-3.396 -7.791,-6.084 -12.541,-8.062 -4.812,-1.938 -9.938,-2.938 -15.375,-2.938 -5.459,0 -10.584,1 -15.375,2.938 -4.75,1.979 -8.938,4.667 -12.542,8.062 -3.583,3.416 -6.396,7.416 -8.459,12.041 -2.042,4.605 -3.062,9.479 -3.062,14.584 0,5.125 1.02,10 3.062,14.604 2.063,4.604 4.876,8.625 8.459,12.021 3.604,3.416 7.792,6.125 12.542,8.062 4.791,1.979 9.916,2.958 15.375,2.958 5.438,0 10.562,-0.979 15.375,-2.958 4.75,-1.938 8.938,-4.646 12.541,-8.062 3.584,-3.396 6.396,-7.417 8.416,-12.021 2.042,-4.604 3.105,-9.479 3.105,-14.604 0,-5.104 -1.063,-9.979 -3.105,-14.584 -2.02,-4.625 -4.832,-8.625 -8.416,-12.041 z m -15.354,38.666 c -3.438,3.417 -7.625,5.126 -12.562,5.126 -4.937,0 -9.125,-1.709 -12.562,-5.126 -3.396,-3.416 -5.125,-7.416 -5.125,-12.041 0,-4.75 1.729,-8.833 5.125,-12.146 3.438,-3.333 7.625,-4.979 12.562,-4.979 4.937,0 9.125,1.646 12.562,4.979 3.374,3.312 5.104,7.396 5.104,12.146 0,4.625 -1.73,8.625 -5.104,12.041 z m 177.645,-15.104 0,-31.5 -121.582,0 0,176.396 35.063,0 0,-71.938 73.979,0 0,-31.479 -73.979,0 0,-41.479 86.519,0 z"
         id="path7"
         inkscape:connector-curvature="0"
         style="fill:#1d1d1b" /></g></g></svg>
